<?xml version="1.0" encoding="UTF-8"?>
<svg width="85px" height="15px" viewBox="0 0 85 15" version="1.1" xmlns="http://www.w3.org/2000/svg" xmlns:xlink="http://www.w3.org/1999/xlink">
    <!-- Generator: Sketch 63.1 (92452) - https://sketch.com -->
    <title>Rabobank Name Logo</title>
    <desc>Created with Sketch.</desc>
    <g id="update-field-labels" stroke="none" stroke-width="1" fill="none" fill-rule="evenodd">
        <g id="Native" transform="translate(-3911.000000, -1989.000000)" fill="#27317C">
            <g id="Rabobank-Name-Logo" transform="translate(3911.000000, 1989.000000)">
                <path d="M39.5166096,9.41096953 C39.7140531,8.37173218 39.923452,6.35391198 38.0855965,6.35391198 C36.8509402,6.35391198 35.697435,7.16851608 35.1793721,10.0263306 C34.8631001,11.7705003 35.2094415,13.1708435 36.6400922,13.1708435 C37.6867243,13.1708435 38.9623184,12.3304965 39.5166096,9.41096953 Z M32.3495891,10.5757476 C32.7622281,6.81728418 34.5033543,4.49195975 38.6413368,4.49195975 C41.7142108,4.49195975 42.7304112,6.77531973 42.3177723,9.22724281 C41.6573326,13.1525061 40.0890148,15 36.149925,15 C33.5983744,15 32.0862103,12.9754796 32.3495891,10.5757476 Z M26.8026928,6.46605229 C28.1742916,6.46605229 28.7564785,7.36775907 28.4322363,9.67933045 C28.101473,12.0416823 26.8805834,13.1010203 25.4318186,13.1010203 C24.5243027,13.1010203 24.0029792,12.4817801 24.1765122,11.52224 L24.6793593,8.47752492 C24.8720932,7.34942167 25.567312,6.46605229 26.7838542,6.46605229 L26.8026928,6.46605229 Z M25.6828798,14.9428719 C28.8887113,14.9428719 30.7233062,12.6877233 31.2247042,9.77419127 C31.8626824,6.18429095 30.0664894,4.54944047 27.8073002,4.54944047 C26.74509,4.54944047 25.9788641,4.64253809 25.3792877,4.94334211 L26.2491263,0 L23.578385,0 L20.9326412,14.7654928 L22.9411313,14.7654928 C22.9411313,14.7654928 23.2305945,14.1536581 23.5207822,14.1536581 C23.7131538,14.1536581 24.1765122,14.9428719 25.6828798,14.9428719 Z M59.6902704,10.1123754 C59.2602419,13.0826829 58.854124,13.3796079 57.3850714,13.3796079 C56.3808263,13.3796079 56.0069515,12.7092345 56.1786731,11.8293916 C56.4116203,10.6346389 57.3397862,10.1123754 59.6902704,10.1123754 Z M62.8769009,7.46226726 C63.2630933,5.28223152 62.0653897,4.53004514 59.6515062,4.53004514 C56.6394955,4.53004514 55.3262241,5.92192496 55.3262241,5.92192496 L56.2529409,7.44357721 C56.2529409,7.44357721 57.2267543,6.33451664 59.1696715,6.33451664 C60.2539808,6.33451664 60.2764423,6.8705332 60.1728297,7.44357721 L59.9605326,8.7405962 C56.0790456,8.64608802 54.0901187,9.45399191 53.6466858,11.935537 C53.279332,13.9656996 54.8433025,14.9442825 56.6000068,14.9442825 C57.5075227,14.9442825 58.2418678,14.8109836 59.1301828,14.0595025 C59.3044403,14.5489703 59.6123798,14.8067519 59.9601703,14.8635274 C60.5206202,14.9770782 61.4861012,14.849069 61.7755643,14.6417153 C61.7563634,14.3412639 61.7755643,13.5714454 62.1037916,11.7669739 L62.8769009,7.46226726 Z M17.1091193,10.1123754 C16.6787285,13.0826829 16.2726106,13.3796079 14.803558,13.3796079 C13.7993129,13.3796079 13.4258004,12.7092345 13.5971597,11.8293916 C13.8301069,10.6346389 14.7582728,10.1123754 17.1091193,10.1123754 Z M20.2953875,7.46226726 C20.6812176,5.28223152 19.483514,4.53004514 17.0699928,4.53004514 C14.0579821,4.53004514 12.7447107,5.92192496 12.7447107,5.92192496 L13.6714275,7.44357721 C13.6714275,7.44357721 14.6452409,6.33451664 16.5881581,6.33451664 C17.6724674,6.33451664 17.6949289,6.8705332 17.5913163,7.44357721 L17.3793815,8.7405962 C13.4975322,8.64608802 11.5089675,9.45399191 11.0648101,11.935537 C10.6974564,13.9656996 12.2617891,14.9442825 14.0184934,14.9442825 C14.9260093,14.9442825 15.6603544,14.8109836 16.5486694,14.0595025 C16.7229269,14.5489703 17.0312287,14.8067519 17.3786569,14.8635274 C17.9391068,14.9770782 18.9045878,14.849069 19.1940509,14.6417153 C19.17485,14.3412639 19.1940509,13.5714454 19.5222782,11.7669739 L20.2953875,7.46226726 Z M8.16220847,4.74163062 C7.92998585,6.01995956 6.9130609,6.91813993 5.65739225,6.91813993 L4.07458316,6.91813993 L4.89478911,2.37434173 L6.33377233,2.36728888 C8.04193092,2.36728888 8.37450559,3.46330167 8.16220847,4.74163062 Z M7.62023493,8.17143126 C9.56967318,7.75813429 10.5818885,6.22096577 10.852513,5.22616137 C11.5470071,2.4811924 10.292063,0.338184126 6.70076378,0.376269513 L2.58379364,0.372037803 L0,14.7654928 L2.68342113,14.7654928 L3.74526903,8.98497743 C6.21965357,8.91938593 6.52070973,9.50547771 6.98769094,12.3111012 L7.41228519,14.7654928 L10.1956961,14.7654928 C9.8674688,13.280868 9.65444712,11.8794668 9.38454719,10.7513636 C9.09508405,9.5668375 8.64404324,8.64079838 7.48474154,8.20140587 L7.62023493,8.17143126 Z M85,4.54944047 L81.8524959,4.54944047 L78.2354746,8.28180835 L78.1825815,8.27405022 L79.630984,0.00916870416 L77.005528,0.00916870416 L74.3597842,14.7654928 L77.0250912,14.7654928 L77.296078,13.2889787 L77.8362401,10.0559526 C79.2447917,10.0559526 80.0371019,10.2072362 80.6551546,12.9313993 L81.0797489,14.7654928 L83.8026587,14.7654928 C83.8026587,14.7654928 83.1266409,11.9732697 82.6821212,10.8836045 C82.2184005,9.73645853 81.7115683,8.97933515 80.6297949,8.77303931 L85,4.54944047 Z M73.7406446,7.85652153 C74.1471248,5.62041565 73.2972117,4.53004514 70.8065245,4.53004514 C68.9523663,4.53004514 68.2227308,5.32454862 67.5278744,6.0019748 L67.5956211,4.75608896 L65.129569,4.77089994 L64.9382842,6.61627798 L63.5094449,14.7654928 L66.2098933,14.7654928 L67.0797318,9.47303461 C67.3876713,7.65057833 68.6824664,6.25905116 69.8979218,6.25905116 C71.2499574,6.25905116 71.2336547,7.01123754 71.0220821,8.15732556 L69.8446664,14.7654928 L72.5237401,14.7654928 L73.7406446,7.85652153 Z M45.4058621,14.1536581 C45.6000452,14.1536581 46.0623167,14.9428719 47.5686844,14.9428719 C50.7748781,14.9428719 52.6083862,12.6877233 53.110871,9.77419127 C53.7484869,6.18429095 51.9526562,4.54944047 49.693467,4.54944047 C48.6308945,4.54944047 47.8367729,4.64253809 47.2574843,4.94334211 L48.1269606,0 L45.4641895,0 L42.8195325,14.7654928 L44.8269359,14.7654928 C44.8269359,14.7654928 45.1171236,14.1536581 45.4254254,14.1536581 L45.4058621,14.1536581 Z M50.2988398,9.67933045 C49.9380072,11.9249577 48.7468247,13.1010203 47.3176231,13.1010203 C46.4104695,13.1010203 45.8884215,12.4817801 46.0431158,11.52224 L46.5452383,8.47752492 C46.7390591,7.34942167 47.4339155,6.46605229 48.6696587,6.46605229 C50.0408952,6.46605229 50.6694541,7.37410664 50.2988398,9.67933045 L50.2988398,9.67933045 Z" id="Fill-1"></path>
            </g>
        </g>
    </g>
</svg>